<?xml version="1.0" standalone="no"?>
<!DOCTYPE svg PUBLIC "-//W3C//DTD SVG 20010904//EN"
  "http://www.w3.org/TR/2001/REC-SVG-20010904/DTD/svg10.dtd">
<svg version="1.0" xmlns="http://www.w3.org/2000/svg"
  width="60.000000pt" height="60.000000pt" viewBox="0 0 60.000000 60.000000"
  preserveAspectRatio="xMidYMid meet">

<g transform="translate(0.000000,60.000000) scale(0.100000,-0.100000)"
 fill="#000000" stroke="none">
<path d="M290 440 l-75 -6 77 -2 c105 -3 113 -22 9 -22 -45 0 -81 -3 -81 -7 0
-5 37 -8 82 -8 l83 0 3 -82 c2 -46 -1 -83 -6 -83 -4 0 -26 18 -47 40 -21 22
-46 40 -55 40 -26 0 -132 -114 -124 -133 10 -27 35 -20 80 24 l41 40 44 -40
 c47 -43 87 -53 109 -26 17 20 14 256 -3 267 -13 8 -19 8 -137 -2z"/>
</g>
</svg>